<?xml version="1.0" encoding="UTF-8" standalone="no"?>
<!-- Created with Inkscape (http://www.inkscape.org/) -->

<svg
   xmlns:dc="http://purl.org/dc/elements/1.1/"
   xmlns:cc="http://creativecommons.org/ns#"
   xmlns:rdf="http://www.w3.org/1999/02/22-rdf-syntax-ns#"
   xmlns:svg="http://www.w3.org/2000/svg"
   xmlns="http://www.w3.org/2000/svg"
   xmlns:sodipodi="http://sodipodi.sourceforge.net/DTD/sodipodi-0.dtd"
   xmlns:inkscape="http://www.inkscape.org/namespaces/inkscape"
   version="1.1"
   id="svg97128"
   xml:space="preserve"
   width="666.66669"
   height="666.66669"
   viewBox="0 0 666.66669 666.66669"
   sodipodi:docname="white-frame-picture-publicdomainvectors.org.svg"
   inkscape:version="0.92.4 (5da689c313, 2019-01-14)"><metadata
     id="metadata97134"><rdf:RDF><cc:Work
         rdf:about=""><dc:format>image/svg+xml</dc:format><dc:type
           rdf:resource="http://purl.org/dc/dcmitype/StillImage" /><dc:title></dc:title></cc:Work></rdf:RDF></metadata><defs
     id="defs97132"><clipPath
       clipPathUnits="userSpaceOnUse"
       id="clipPath97144"><path
         d="M 0,500 H 500 V 0 H 0 Z"
         id="path97142"
         inkscape:connector-curvature="0" /></clipPath><radialGradient
       fx="0"
       fy="0"
       cx="0"
       cy="0"
       r="1"
       gradientUnits="userSpaceOnUse"
       gradientTransform="matrix(548.17755,0,0,-548.17755,294,321)"
       spreadMethod="pad"
       id="radialGradient97162"><stop
         style="stop-opacity:1;stop-color:#ffffff"
         offset="0"
         id="stop97158" /><stop
         style="stop-opacity:1;stop-color:#10212e"
         offset="1"
         id="stop97160" /></radialGradient><clipPath
       clipPathUnits="userSpaceOnUse"
       id="clipPath97172"><path
         d="m 138.312,398.624 h 247.53 V 107.221 h -247.53 z"
         id="path97170"
         inkscape:connector-curvature="0" /></clipPath><clipPath
       clipPathUnits="userSpaceOnUse"
       id="clipPath97176"><path
         d="M 138.312,382.135 H 372.816 V 107.221 H 138.312 Z"
         id="path97174"
         inkscape:connector-curvature="0" /></clipPath><clipPath
       clipPathUnits="userSpaceOnUse"
       id="clipPath97180"><path
         d="M 138.869,382.852 H 373.382 V 107.938 H 138.869 Z"
         id="path97178"
         inkscape:connector-curvature="0" /></clipPath><clipPath
       clipPathUnits="userSpaceOnUse"
       id="clipPath97184"><path
         d="M 139.426,383.568 H 373.948 V 108.655 H 139.426 Z"
         id="path97182"
         inkscape:connector-curvature="0" /></clipPath><clipPath
       clipPathUnits="userSpaceOnUse"
       id="clipPath97188"><path
         d="M 139.982,384.286 H 374.516 V 109.371 H 139.982 Z"
         id="path97186"
         inkscape:connector-curvature="0" /></clipPath><clipPath
       clipPathUnits="userSpaceOnUse"
       id="clipPath97192"><path
         d="M 140.539,385.002 H 375.082 V 110.088 H 140.539 Z"
         id="path97190"
         inkscape:connector-curvature="0" /></clipPath><clipPath
       clipPathUnits="userSpaceOnUse"
       id="clipPath97196"><path
         d="M 141.096,385.719 H 375.648 V 110.805 H 141.096 Z"
         id="path97194"
         inkscape:connector-curvature="0" /></clipPath><clipPath
       clipPathUnits="userSpaceOnUse"
       id="clipPath97200"><path
         d="M 141.652,386.437 H 376.214 V 111.521 H 141.652 Z"
         id="path97198"
         inkscape:connector-curvature="0" /></clipPath><clipPath
       clipPathUnits="userSpaceOnUse"
       id="clipPath97204"><path
         d="m 142.209,387.152 h 234.57 V 112.239 h -234.57 z"
         id="path97202"
         inkscape:connector-curvature="0" /></clipPath><clipPath
       clipPathUnits="userSpaceOnUse"
       id="clipPath97208"><path
         d="M 142.766,387.87 H 377.347 V 112.955 H 142.766 Z"
         id="path97206"
         inkscape:connector-curvature="0" /></clipPath><clipPath
       clipPathUnits="userSpaceOnUse"
       id="clipPath97212"><path
         d="m 143.323,388.587 h 234.59 V 113.672 h -234.59 z"
         id="path97210"
         inkscape:connector-curvature="0" /></clipPath><clipPath
       clipPathUnits="userSpaceOnUse"
       id="clipPath97216"><path
         d="m 143.879,389.305 h 234.6 V 114.389 h -234.6 z"
         id="path97214"
         inkscape:connector-curvature="0" /></clipPath><clipPath
       clipPathUnits="userSpaceOnUse"
       id="clipPath97220"><path
         d="M 144.437,390.021 H 379.045 V 115.106 H 144.437 Z"
         id="path97218"
         inkscape:connector-curvature="0" /></clipPath><clipPath
       clipPathUnits="userSpaceOnUse"
       id="clipPath97224"><path
         d="M 144.993,390.738 H 379.611 V 115.823 H 144.993 Z"
         id="path97222"
         inkscape:connector-curvature="0" /></clipPath><clipPath
       clipPathUnits="userSpaceOnUse"
       id="clipPath97228"><path
         d="M 145.549,391.454 H 380.177 V 116.54 H 145.549 Z"
         id="path97226"
         inkscape:connector-curvature="0" /></clipPath><clipPath
       clipPathUnits="userSpaceOnUse"
       id="clipPath97232"><path
         d="M 146.107,392.172 H 380.744 V 117.256 H 146.107 Z"
         id="path97230"
         inkscape:connector-curvature="0" /></clipPath><clipPath
       clipPathUnits="userSpaceOnUse"
       id="clipPath97236"><path
         d="M 146.664,392.889 H 381.311 V 117.974 H 146.664 Z"
         id="path97234"
         inkscape:connector-curvature="0" /></clipPath><clipPath
       clipPathUnits="userSpaceOnUse"
       id="clipPath97240"><path
         d="M 146.75,393.606 H 381.877 V 118.689 H 146.75 Z"
         id="path97238"
         inkscape:connector-curvature="0" /></clipPath><clipPath
       clipPathUnits="userSpaceOnUse"
       id="clipPath97244"><path
         d="M 146.835,394.322 H 382.443 V 119.407 H 146.835 Z"
         id="path97242"
         inkscape:connector-curvature="0" /></clipPath><clipPath
       clipPathUnits="userSpaceOnUse"
       id="clipPath97248"><path
         d="M 146.919,395.039 H 383.01 V 120.123 H 146.919 Z"
         id="path97246"
         inkscape:connector-curvature="0" /></clipPath><clipPath
       clipPathUnits="userSpaceOnUse"
       id="clipPath97252"><path
         d="M 147.003,395.756 H 383.576 V 120.84 H 147.003 Z"
         id="path97250"
         inkscape:connector-curvature="0" /></clipPath><clipPath
       clipPathUnits="userSpaceOnUse"
       id="clipPath97256"><path
         d="M 147.087,396.473 H 384.143 V 121.559 H 147.087 Z"
         id="path97254"
         inkscape:connector-curvature="0" /></clipPath><clipPath
       clipPathUnits="userSpaceOnUse"
       id="clipPath97260"><path
         d="M 147.172,397.19 H 384.709 V 122.274 H 147.172 Z"
         id="path97258"
         inkscape:connector-curvature="0" /></clipPath><clipPath
       clipPathUnits="userSpaceOnUse"
       id="clipPath97264"><path
         d="M 147.256,397.906 H 385.274 V 122.991 H 147.256 Z"
         id="path97262"
         inkscape:connector-curvature="0" /></clipPath><clipPath
       clipPathUnits="userSpaceOnUse"
       id="clipPath97268"><path
         d="M 147.341,398.624 H 385.842 V 123.708 H 147.341 Z"
         id="path97266"
         inkscape:connector-curvature="0" /></clipPath><linearGradient
       x1="0"
       y1="0"
       x2="1"
       y2="0"
       gradientUnits="userSpaceOnUse"
       gradientTransform="matrix(9.9711304,-687.59796,-687.59796,-9.9711304,263.06055,504.59912)"
       spreadMethod="pad"
       id="linearGradient97530"><stop
         style="stop-opacity:1;stop-color:#fcfaf9"
         offset="0"
         id="stop97526" /><stop
         style="stop-opacity:1;stop-color:#fbefe4"
         offset="1"
         id="stop97528" /></linearGradient><radialGradient
       fx="0.83149701"
       fy="-0.55552697"
       cx="0"
       cy="0"
       r="1"
       gradientUnits="userSpaceOnUse"
       gradientTransform="matrix(263.74963,3.8247528,3.8247528,-263.74963,337.71387,203.85937)"
       spreadMethod="pad"
       id="radialGradient97550"><stop
         style="stop-opacity:1;stop-color:#474f57"
         offset="0"
         id="stop97546" /><stop
         style="stop-opacity:1;stop-color:#10212e"
         offset="1"
         id="stop97548" /></radialGradient></defs><sodipodi:namedview
     pagecolor="#ffffff"
     bordercolor="#666666"
     borderopacity="1"
     objecttolerance="10"
     gridtolerance="10"
     guidetolerance="10"
     inkscape:pageopacity="0"
     inkscape:pageshadow="2"
     inkscape:window-width="640"
     inkscape:window-height="480"
     id="namedview97130"
     showgrid="false"
     inkscape:zoom="0.45771092"
     inkscape:cx="333.33334"
     inkscape:cy="333.33334"
     inkscape:window-x="0"
     inkscape:window-y="0"
     inkscape:window-maximized="0"
     inkscape:current-layer="g97136" /><g
     id="g97136"
     inkscape:groupmode="layer"
     inkscape:label="white-frame-picture-publicdomainvectors.org"
     transform="matrix(1.3333333,0,0,-1.3333333,0,666.66667)"><g
       id="g97138"><g
         id="g97140"
         clip-path="url(#clipPath97144)"><g
           id="g97146"><g
             id="g97148"><g
               id="g97154"><g
                 id="g97156"><path
                   d="M 500,0 H 0 v 500 h 500 z"
                   style="fill:url(#radialGradient97162);stroke:none"
                   id="path97164"
                   inkscape:connector-curvature="0" /></g></g></g></g><g
           id="g97166"><g
             id="g97168" /><g
             id="g97512"><g
               clip-path="url(#clipPath97172)"
               id="g97510"><g
                 id="g97278"><g
                   id="g97270" /><g
                   id="g97276"><g
                     clip-path="url(#clipPath97176)"
                     id="g97274"
                     style="opacity:0"><path
                       d="M 368.006,125.678 143.262,107.222 c -2.695,-0.039 -4.911,2.114 -4.949,4.808 l 7.09,262.068 c -0.039,2.694 2.114,4.911 4.809,4.95 l 214.097,3.087 c 2.696,0.038 4.911,-2.115 4.95,-4.809 l 3.556,-246.698 c 0.039,-2.694 -2.114,-4.91 -4.809,-4.95"
                       style="fill:#ffffff;fill-opacity:1;fill-rule:nonzero;stroke:none"
                       id="path97272"
                       inkscape:connector-curvature="0" /></g></g></g><g
                 id="g97288"><g
                   id="g97280" /><g
                   id="g97286"><g
                     clip-path="url(#clipPath97180)"
                     id="g97284"
                     style="opacity:0.04347229"><path
                       d="M 368.573,125.734 143.819,107.938 c -2.695,-0.038 -4.911,2.114 -4.95,4.809 l 6.618,262.061 c -0.039,2.695 2.114,4.911 4.809,4.949 l 214.569,3.095 c 2.696,0.039 4.91,-2.115 4.951,-4.81 l 3.565,-247.357 c 0.04,-2.697 -2.114,-4.912 -4.808,-4.951"
                       style="fill:#fcfcfc;fill-opacity:1;fill-rule:nonzero;stroke:none"
                       id="path97282"
                       inkscape:connector-curvature="0" /></g></g></g><g
                 id="g97298"><g
                   id="g97290" /><g
                   id="g97296"><g
                     clip-path="url(#clipPath97184)"
                     id="g97294"
                     style="opacity:0.08695978"><path
                       d="M 369.14,125.791 144.376,108.656 c -2.695,-0.04 -4.911,2.114 -4.95,4.807 l 6.145,262.054 c -0.039,2.696 2.114,4.912 4.81,4.951 l 215.041,3.1 c 2.695,0.039 4.911,-2.114 4.949,-4.809 l 3.576,-248.02 c 0.039,-2.695 -2.113,-4.912 -4.807,-4.948"
                       style="fill:#f8f8f8;fill-opacity:1;fill-rule:nonzero;stroke:none"
                       id="path97292"
                       inkscape:connector-curvature="0" /></g></g></g><g
                 id="g97308"><g
                   id="g97300" /><g
                   id="g97306"><g
                     clip-path="url(#clipPath97188)"
                     id="g97304"
                     style="opacity:0.13043201"><path
                       d="M 369.706,125.845 144.932,109.372 c -2.695,-0.04 -4.911,2.114 -4.95,4.809 l 5.673,262.047 c -0.039,2.695 2.116,4.911 4.809,4.95 l 215.515,3.108 c 2.695,0.038 4.911,-2.115 4.949,-4.809 l 3.587,-248.682 c 0.038,-2.696 -2.116,-4.91 -4.809,-4.95"
                       style="fill:#f5f5f5;fill-opacity:1;fill-rule:nonzero;stroke:none"
                       id="path97302"
                       inkscape:connector-curvature="0" /></g></g></g><g
                 id="g97318"><g
                   id="g97310" /><g
                   id="g97316"><g
                     clip-path="url(#clipPath97192)"
                     id="g97314"
                     style="opacity:0.17392004"><path
                       d="M 370.271,125.901 145.489,110.089 c -2.695,-0.04 -4.912,2.113 -4.95,4.808 l 5.2,262.041 c -0.038,2.695 2.115,4.911 4.81,4.95 l 215.986,3.114 c 2.695,0.039 4.911,-2.114 4.95,-4.809 l 3.596,-249.343 c 0.038,-2.695 -2.114,-4.912 -4.81,-4.949"
                       style="fill:#f2f2f2;fill-opacity:1;fill-rule:nonzero;stroke:none"
                       id="path97312"
                       inkscape:connector-curvature="0" /></g></g></g><g
                 id="g97328"><g
                   id="g97320" /><g
                   id="g97326"><g
                     clip-path="url(#clipPath97196)"
                     id="g97324"
                     style="opacity:0.21739203"><path
                       d="M 370.839,125.955 146.045,110.806 c -2.694,-0.039 -4.91,2.114 -4.949,4.808 l 4.729,262.033 c -0.039,2.696 2.113,4.912 4.808,4.951 l 216.459,3.121 c 2.696,0.039 4.911,-2.114 4.951,-4.809 l 3.604,-250.004 c 0.039,-2.697 -2.114,-4.912 -4.808,-4.951"
                       style="fill:#eeeeee;fill-opacity:1;fill-rule:nonzero;stroke:none"
                       id="path97322"
                       inkscape:connector-curvature="0" /></g></g></g><g
                 id="g97338"><g
                   id="g97330" /><g
                   id="g97336"><g
                     clip-path="url(#clipPath97200)"
                     id="g97334"
                     style="opacity:0.26086402"><path
                       d="M 371.405,126.012 146.603,111.521 c -2.696,-0.038 -4.912,2.117 -4.951,4.811 l 4.256,262.026 c -0.038,2.695 2.114,4.912 4.809,4.95 l 216.931,3.128 c 2.696,0.039 4.913,-2.114 4.952,-4.81 l 3.614,-250.665 c 0.037,-2.695 -2.114,-4.911 -4.809,-4.949"
                       style="fill:#ebebeb;fill-opacity:1;fill-rule:nonzero;stroke:none"
                       id="path97332"
                       inkscape:connector-curvature="0" /></g></g></g><g
                 id="g97348"><g
                   id="g97340" /><g
                   id="g97346"><g
                     clip-path="url(#clipPath97204)"
                     id="g97344"
                     style="opacity:0.30435199"><path
                       d="M 371.972,126.066 147.16,112.24 c -2.695,-0.039 -4.911,2.114 -4.951,4.809 l 3.784,262.019 c -0.04,2.696 2.113,4.911 4.809,4.95 l 217.403,3.134 c 2.695,0.039 4.912,-2.113 4.95,-4.808 l 3.623,-251.328 c 0.041,-2.696 -2.112,-4.911 -4.806,-4.95"
                       style="fill:#e8e8e8;fill-opacity:1;fill-rule:nonzero;stroke:none"
                       id="path97342"
                       inkscape:connector-curvature="0" /></g></g></g><g
                 id="g97358"><g
                   id="g97350" /><g
                   id="g97356"><g
                     clip-path="url(#clipPath97208)"
                     id="g97354"
                     style="opacity:0.34782404"><path
                       d="M 372.537,126.122 147.716,112.956 c -2.695,-0.039 -4.911,2.113 -4.95,4.809 l 3.311,262.013 c -0.039,2.696 2.114,4.911 4.809,4.95 l 217.878,3.142 c 2.693,0.039 4.91,-2.115 4.949,-4.809 l 3.633,-251.99 c 0.039,-2.694 -2.115,-4.912 -4.809,-4.949"
                       style="fill:#e5e5e5;fill-opacity:1;fill-rule:nonzero;stroke:none"
                       id="path97352"
                       inkscape:connector-curvature="0" /></g></g></g><g
                 id="g97368"><g
                   id="g97360" /><g
                   id="g97366"><g
                     clip-path="url(#clipPath97212)"
                     id="g97364"
                     style="opacity:0.39129603"><path
                       d="M 373.104,126.178 148.272,113.672 c -2.694,-0.036 -4.91,2.115 -4.949,4.81 l 2.838,262.006 c -0.039,2.696 2.114,4.911 4.809,4.95 l 218.35,3.148 c 2.695,0.039 4.91,-2.114 4.951,-4.808 l 3.641,-252.651 c 0.039,-2.693 -2.114,-4.909 -4.808,-4.949"
                       style="fill:#e1e1e1;fill-opacity:1;fill-rule:nonzero;stroke:none"
                       id="path97362"
                       inkscape:connector-curvature="0" /></g></g></g><g
                 id="g97378"><g
                   id="g97370" /><g
                   id="g97376"><g
                     clip-path="url(#clipPath97216)"
                     id="g97374"
                     style="opacity:0.434784"><path
                       d="M 373.669,126.232 148.829,114.39 c -2.694,-0.039 -4.911,2.114 -4.95,4.808 l 2.367,262.001 c -0.039,2.694 2.114,4.91 4.809,4.949 l 218.82,3.156 c 2.697,0.038 4.911,-2.115 4.951,-4.809 l 3.653,-253.312 c 0.038,-2.696 -2.115,-4.911 -4.81,-4.951"
                       style="fill:#dedede;fill-opacity:1;fill-rule:nonzero;stroke:none"
                       id="path97372"
                       inkscape:connector-curvature="0" /></g></g></g><g
                 id="g97388"><g
                   id="g97380" /><g
                   id="g97386"><g
                     clip-path="url(#clipPath97220)"
                     id="g97384"
                     style="opacity:0.47825599"><path
                       d="M 374.234,126.289 149.387,115.107 c -2.696,-0.039 -4.912,2.114 -4.95,4.81 l 1.892,261.992 c -0.038,2.695 2.114,4.91 4.81,4.949 l 219.295,3.163 c 2.694,0.038 4.91,-2.115 4.949,-4.81 l 3.661,-253.974 c 0.039,-2.693 -2.113,-4.91 -4.81,-4.948"
                       style="fill:#dbdbdb;fill-opacity:1;fill-rule:nonzero;stroke:none"
                       id="path97382"
                       inkscape:connector-curvature="0" /></g></g></g><g
                 id="g97398"><g
                   id="g97390" /><g
                   id="g97396"><g
                     clip-path="url(#clipPath97224)"
                     id="g97394"
                     style="opacity:0.52174401"><path
                       d="m 374.802,126.343 -224.86,-10.519 c -2.694,-0.039 -4.91,2.114 -4.949,4.81 l 1.421,261.985 c -0.039,2.694 2.115,4.91 4.809,4.949 l 219.768,3.169 c 2.694,0.039 4.91,-2.114 4.947,-4.809 l 3.672,-254.634 c 0.039,-2.696 -2.113,-4.912 -4.808,-4.951"
                       style="fill:#d7d7d7;fill-opacity:1;fill-rule:nonzero;stroke:none"
                       id="path97392"
                       inkscape:connector-curvature="0" /></g></g></g><g
                 id="g97408"><g
                   id="g97400" /><g
                   id="g97406"><g
                     clip-path="url(#clipPath97228)"
                     id="g97404"
                     style="opacity:0.565216"><path
                       d="M 375.367,126.399 150.5,116.541 c -2.695,-0.04 -4.912,2.113 -4.951,4.808 l 0.949,261.981 c -0.039,2.694 2.115,4.909 4.81,4.948 l 220.238,3.176 c 2.695,0.039 4.911,-2.114 4.95,-4.809 l 3.68,-255.296 c 0.04,-2.695 -2.113,-4.911 -4.809,-4.95"
                       style="fill:#d4d4d4;fill-opacity:1;fill-rule:nonzero;stroke:none"
                       id="path97402"
                       inkscape:connector-curvature="0" /></g></g></g><g
                 id="g97418"><g
                   id="g97410" /><g
                   id="g97416"><g
                     clip-path="url(#clipPath97232)"
                     id="g97414"
                     style="opacity:0.60870397"><path
                       d="m 375.936,126.455 -224.879,-9.198 c -2.695,-0.038 -4.911,2.114 -4.95,4.808 l 0.475,261.974 c -0.039,2.694 2.115,4.91 4.81,4.949 l 220.712,3.183 c 2.695,0.038 4.909,-2.114 4.95,-4.809 l 3.69,-255.957 c 0.037,-2.697 -2.115,-4.912 -4.808,-4.95"
                       style="fill:#d1d1d1;fill-opacity:1;fill-rule:nonzero;stroke:none"
                       id="path97412"
                       inkscape:connector-curvature="0" /></g></g></g><g
                 id="g97428"><g
                   id="g97420" /><g
                   id="g97426"><g
                     clip-path="url(#clipPath97236)"
                     id="g97424"
                     style="opacity:0.65217602"><path
                       d="m 376.501,126.51 -224.888,-8.535 c -2.695,-0.04 -4.911,2.115 -4.949,4.808 l 0.003,261.967 c -0.039,2.694 2.114,4.91 4.809,4.948 l 221.183,3.19 c 2.696,0.039 4.911,-2.115 4.95,-4.809 l 3.702,-256.62 c 0.037,-2.694 -2.116,-4.911 -4.81,-4.949"
                       style="fill:#cdcdcd;fill-opacity:1;fill-rule:nonzero;stroke:none"
                       id="path97422"
                       inkscape:connector-curvature="0" /></g></g></g><g
                 id="g97438"><g
                   id="g97430" /><g
                   id="g97436"><g
                     clip-path="url(#clipPath97240)"
                     id="g97434"
                     style="opacity:0.69564801"><path
                       d="M 377.066,126.564 152.17,118.69 c -2.694,-0.038 -4.912,2.115 -4.95,4.811 l -0.47,261.958 c -0.038,2.695 2.115,4.911 4.81,4.95 l 221.656,3.196 c 2.696,0.039 4.912,-2.114 4.95,-4.809 l 3.71,-257.28 c 0.04,-2.696 -2.114,-4.911 -4.81,-4.952"
                       style="fill:#cacaca;fill-opacity:1;fill-rule:nonzero;stroke:none"
                       id="path97432"
                       inkscape:connector-curvature="0" /></g></g></g><g
                 id="g97448"><g
                   id="g97440" /><g
                   id="g97446"><g
                     clip-path="url(#clipPath97244)"
                     id="g97444"
                     style="opacity:0.73913598"><path
                       d="m 377.633,126.621 -224.906,-7.213 c -2.695,-0.04 -4.911,2.114 -4.95,4.81 l -0.941,261.951 c -0.039,2.695 2.114,4.911 4.808,4.95 l 222.13,3.202 c 2.693,0.04 4.91,-2.113 4.948,-4.808 l 3.72,-257.943 c 0.039,-2.695 -2.114,-4.911 -4.809,-4.949"
                       style="fill:#c7c7c7;fill-opacity:1;fill-rule:nonzero;stroke:none"
                       id="path97442"
                       inkscape:connector-curvature="0" /></g></g></g><g
                 id="g97458"><g
                   id="g97450" /><g
                   id="g97456"><g
                     clip-path="url(#clipPath97248)"
                     id="g97454"
                     style="opacity:0.78260797"><path
                       d="m 378.199,126.676 -224.916,-6.552 c -2.694,-0.038 -4.911,2.114 -4.949,4.811 l -1.414,261.944 c -0.04,2.695 2.114,4.91 4.809,4.95 l 222.601,3.209 c 2.696,0.04 4.912,-2.114 4.949,-4.809 l 3.73,-258.604 c 0.04,-2.694 -2.114,-4.911 -4.81,-4.949"
                       style="fill:#c4c4c4;fill-opacity:1;fill-rule:nonzero;stroke:none"
                       id="path97452"
                       inkscape:connector-curvature="0" /></g></g></g><g
                 id="g97468"><g
                   id="g97460" /><g
                   id="g97466"><g
                     clip-path="url(#clipPath97252)"
                     id="g97464"
                     style="opacity:0.82608002"><path
                       d="m 378.766,126.731 -224.926,-5.89 c -2.694,-0.038 -4.911,2.115 -4.95,4.81 l -1.886,261.938 c -0.039,2.695 2.114,4.911 4.809,4.951 l 223.073,3.216 c 2.696,0.038 4.911,-2.115 4.952,-4.809 l 3.737,-259.266 c 0.039,-2.695 -2.114,-4.911 -4.809,-4.95"
                       style="fill:#c0c0c0;fill-opacity:1;fill-rule:nonzero;stroke:none"
                       id="path97462"
                       inkscape:connector-curvature="0" /></g></g></g><g
                 id="g97478"><g
                   id="g97470" /><g
                   id="g97476"><g
                     clip-path="url(#clipPath97256)"
                     id="g97474"
                     style="opacity:0.86956799"><path
                       d="M 379.332,126.787 154.397,121.56 c -2.695,-0.039 -4.911,2.113 -4.95,4.807 L 147.088,388.3 c -0.039,2.694 2.115,4.91 4.809,4.949 l 223.546,3.223 c 2.695,0.039 4.912,-2.114 4.951,-4.809 l 3.748,-259.927 c 0.039,-2.695 -2.115,-4.911 -4.81,-4.949"
                       style="fill:#bdbdbd;fill-opacity:1;fill-rule:nonzero;stroke:none"
                       id="path97472"
                       inkscape:connector-curvature="0" /></g></g></g><g
                 id="g97488"><g
                   id="g97480" /><g
                   id="g97486"><g
                     clip-path="url(#clipPath97260)"
                     id="g97484"
                     style="opacity:0.91303998"><path
                       d="m 379.897,126.842 -224.943,-4.567 c -2.695,-0.039 -4.911,2.115 -4.95,4.811 l -2.832,261.924 c -0.039,2.694 2.114,4.91 4.809,4.949 l 224.02,3.231 c 2.694,0.039 4.912,-2.115 4.949,-4.81 l 3.758,-260.589 c 0.038,-2.695 -2.113,-4.911 -4.811,-4.949"
                       style="fill:#bababa;fill-opacity:1;fill-rule:nonzero;stroke:none"
                       id="path97482"
                       inkscape:connector-curvature="0" /></g></g></g><g
                 id="g97498"><g
                   id="g97490" /><g
                   id="g97496"><g
                     clip-path="url(#clipPath97264)"
                     id="g97494"
                     style="opacity:0.95652801"><path
                       d="M 380.464,126.896 155.51,122.992 c -2.696,-0.038 -4.911,2.114 -4.949,4.81 l -3.304,261.917 c -0.039,2.695 2.114,4.911 4.809,4.949 l 224.492,3.238 c 2.693,0.039 4.91,-2.114 4.949,-4.809 l 3.766,-261.25 c 0.04,-2.694 -2.113,-4.911 -4.809,-4.951"
                       style="fill:#b6b6b6;fill-opacity:1;fill-rule:nonzero;stroke:none"
                       id="path97492"
                       inkscape:connector-curvature="0" /></g></g></g><g
                 id="g97508"><g
                   id="g97500" /><g
                   id="g97506"><g
                     clip-path="url(#clipPath97268)"
                     id="g97504"><path
                       d="m 381.031,126.954 -224.964,-3.245 c -2.694,-0.039 -4.91,2.114 -4.949,4.809 l -3.777,261.912 c -0.039,2.694 2.114,4.911 4.809,4.95 l 224.964,3.243 c 2.696,0.039 4.91,-2.114 4.95,-4.809 l 3.777,-261.913 c 0.038,-2.692 -2.114,-4.91 -4.81,-4.947"
                       style="fill:#b3b3b3;fill-opacity:1;fill-rule:nonzero;stroke:none"
                       id="path97502"
                       inkscape:connector-curvature="0" /></g></g></g></g></g></g><g
           id="g97514"><g
             id="g97516"><g
               id="g97522"><g
                 id="g97524"><path
                   d="m 381.031,126.954 -224.964,-3.245 c -2.694,-0.039 -4.91,2.114 -4.949,4.809 l -3.777,261.912 c -0.039,2.694 2.114,4.911 4.809,4.95 l 224.964,3.243 c 2.696,0.039 4.91,-2.114 4.95,-4.809 l 3.777,-261.913 c 0.038,-2.692 -2.114,-4.91 -4.81,-4.947"
                   style="fill:url(#linearGradient97530);stroke:none"
                   id="path97532"
                   inkscape:connector-curvature="0" /></g></g></g></g><g
           id="g97534"><g
             id="g97536"><g
               id="g97542"><g
                 id="g97544"><path
                   d="m 371.662,173.011 -207.557,-2.991 -2.992,207.554 207.554,2.993 z"
                   style="fill:url(#radialGradient97550);stroke:none"
                   id="path97552"
                   inkscape:connector-curvature="0" /></g></g></g></g><path
           d="m 368.667,380.567 2.995,-207.556 -207.557,-2.991 -0.031,2.171 205.382,2.962 -2.961,205.383 z"
           style="fill:#222629;fill-opacity:1;fill-rule:nonzero;stroke:none"
           id="path97554"
           inkscape:connector-curvature="0" /></g></g></g></svg>